<?xml version="1.0" encoding="utf-8"?>
<!-- Generator: Adobe Illustrator 25.3.1, SVG Export Plug-In . SVG Version: 6.00 Build 0)  -->
<svg version="1.1" xmlns="http://www.w3.org/2000/svg" xmlns:xlink="http://www.w3.org/1999/xlink" x="0px" y="0px" width="512px"
	 height="512px" viewBox="0 0 512 512" style="enable-background:new 0 0 512 512;" xml:space="preserve">
<style type="text/css">
	.st0{fill:#F9EFEF;}
	.st1{fill:#5C3EB7;}
	.st2{fill:#756AA5;}
	.st3{fill:#B7B3E8;}
	.st4{fill:#9E95DB;}
	.st5{fill:#983FD8;}
	.st6{fill:#671F91;}
</style>
<g id="Layer_2">
	<path class="st0" d="M433,185.8c35.3,86.8,27.7,192.4-44.1,242.8s-208.1,45.5-275.5-5.2c-67.4-51.1-65.8-148-32.5-232.3
		c32.9-84.4,97.5-156.3,168.4-158S397.7,99.4,433,185.8z"/>
</g>
<g id="Layer_1">
	<path class="st1" d="M455.8,288.5v104.3c0,4.2-2.3,8-5.9,10.1l-94.7,53.9c-1.6,0.9-3.7,1.4-5.6,1.4l-23.4-62.6l23.4-55.3l53.5-52.7
		l51-4.9C455.3,284.6,455.8,286.4,455.8,288.5z"/>
	<path class="st2" d="M349.7,340.3v117.9c-1.9,0-4-0.5-5.6-1.4l-93.9-53.9c-3.5-2.1-5.9-5.9-5.9-10.1V288.5c0-2.1,0.5-4,1.6-5.9
		l53.1,6.1L349.7,340.3z"/>
	<path class="st3" d="M454.2,282.7l-104.5,57.6l-103.7-57.6c1.2-1.6,2.6-3.3,4.4-4.2c0,0,94.1-54.1,94.4-54.1
		c1.6-0.7,3.3-1.2,4.9-1.2s3.3,0.5,4.9,1.2c0.2,0,95.1,54.1,95.1,54.1C451.6,279.4,453,281,454.2,282.7z"/>
	<path class="st4" d="M454.2,282.7l-104.5,57.6V223.2c1.6,0,3.3,0.5,4.9,1.2c0.2,0,95.1,54.1,95.1,54.1
		C451.6,279.4,453,281,454.2,282.7z"/>
	<path class="st5" d="M291.1,352c0,6.6-5.1,11.7-11.7,11.7H162.3c-6.6,0-11.7-5.2-11.7-11.7v-70.2c0-6.6,5.1-11.7,11.7-11.7
		s11.7,5.1,11.7,11.7v58.5h105.4C286,340.3,291.1,345.4,291.1,352z"/>
	<path class="st6" d="M291.1,352c0,6.6-5.1,11.7-11.7,11.7H162.3V270c6.6,0,11.7,5.1,11.7,11.7v58.5h105.4
		C286,340.3,291.1,345.4,291.1,352z"/>
	<path class="st1" d="M267.7,124.6v103.5c0,4.2-2.3,8-5.9,10.1L168,292.1c-1.6,0.9-3.7,1.4-5.6,1.4l-23.4-62.6l23.4-54.5l52.7-52.7
		l51-4.9C267.2,120.7,267.7,122.5,267.7,124.6z"/>
	<path class="st2" d="M162.3,176.4v117.1c-1.9,0-4-0.5-5.6-1.4l-94.7-53.9c-3.5-2.1-5.9-5.9-5.9-10.1V124.6c0-2.1,0.5-4,1.6-5.9
		l53.9,6.1L162.3,176.4z"/>
	<path class="st3" d="M266.1,118.8l-103.7,57.6L57.8,118.8c1.2-1.6,2.6-3.3,4.4-4.2c0,0,94.9-54.9,95.1-54.9
		c1.6-0.7,3.3-1.2,4.9-1.2s3.3,0.5,4.9,1.2c0.2,0,94.4,54.9,94.4,54.9C263.5,115.5,264.9,117.1,266.1,118.8z"/>
	<path class="st4" d="M266.1,118.8l-103.7,57.6V58.5c1.6,0,3.3,0.5,4.9,1.2c0.2,0,94.4,54.9,94.4,54.9
		C263.5,115.5,264.9,117.1,266.1,118.8z"/>
	<path class="st5" d="M361.4,188.1v93.7c0,6.6-5.1,11.7-11.7,11.7s-11.7-5.2-11.7-11.7v-81.9H232.6c-6.6,0-11.7-5.2-11.7-11.7
		c0-6.6,5.1-11.7,11.7-11.7h117.1C356.2,176.4,361.4,181.5,361.4,188.1z"/>
	<path class="st6" d="M361.4,188.1v93.7c0,6.6-5.1,11.7-11.7,11.7V176.4C356.2,176.4,361.4,181.5,361.4,188.1z"/>
</g>
</svg>
